<?xml version="1.0" standalone="no"?>
<!DOCTYPE svg PUBLIC "-//W3C//DTD SVG 20010904//EN"
 "http://www.w3.org/TR/2001/REC-SVG-20010904/DTD/svg10.dtd">
<svg version="1.0" xmlns="http://www.w3.org/2000/svg"
 width="352.000000pt" height="352.000000pt" viewBox="0 0 352.000000 352.000000"
 preserveAspectRatio="xMidYMid meet">
<metadata>
Created by potrace 1.13, written by Peter Selinger 2001-2015
</metadata>
<g transform="translate(0.000000,352.000000) scale(0.100000,-0.100000)"
fill="#000000" stroke="none">
<path d="M410 3060 l0 -160 -80 0 -80 0 0 -200 0 -200 40 0 40 0 0 -40 0 -40
-40 0 -40 0 0 -120 0 -120 40 0 40 0 0 -80 0 -80 120 0 120 0 0 -40 0 -40 40
0 40 0 0 -40 0 -40 -40 0 -40 0 0 -40 0 -40 -40 0 -40 0 0 -40 0 -40 -40 0
-40 0 0 -40 0 -40 40 0 40 0 0 -80 0 -80 -40 0 -40 0 0 -40 0 -40 -40 0 -40 0
0 -80 0 -80 40 0 40 0 0 -40 0 -40 200 0 200 0 0 -160 0 -160 -40 0 -40 0 0
-120 0 -120 -40 0 -40 0 0 -80 0 -80 160 0 160 0 0 -80 0 -80 80 0 80 0 0 40
0 40 40 0 40 0 0 40 0 40 80 0 80 0 0 -80 0 -80 360 0 360 0 0 80 0 80 80 0
80 0 0 -40 0 -40 40 0 40 0 0 -40 0 -40 80 0 80 0 0 80 0 80 160 0 160 0 0 80
0 80 -40 0 -40 0 0 120 0 120 -40 0 -40 0 0 160 0 160 200 0 200 0 0 40 0 40
40 0 40 0 0 80 0 80 -40 0 -40 0 0 40 0 40 -40 0 -40 0 0 80 0 80 40 0 40 0 0
40 0 40 -40 0 -40 0 0 40 0 40 -40 0 -40 0 0 40 0 40 -40 0 -40 0 0 40 0 40
40 0 40 0 0 40 0 40 120 0 120 0 0 80 0 80 40 0 40 0 0 120 0 120 -40 0 -40 0
0 40 0 40 40 0 40 0 0 200 0 200 -80 0 -80 0 0 160 0 160 -80 0 -80 0 0 -40 0
-40 -80 0 -80 0 0 -120 0 -120 -200 0 -200 0 0 -40 0 -40 -80 0 -80 0 0 40 0
40 -440 0 -440 0 0 -40 0 -40 -80 0 -80 0 0 40 0 40 -200 0 -200 0 0 120 0
120 -80 0 -80 0 0 40 0 40 -80 0 -80 0 0 -160z m880 -520 l0 -120 -40 0 -40 0
0 -40 0 -40 -40 0 -40 0 0 -40 0 -40 -80 0 -80 0 0 -40 0 -40 -200 0 -200 0 0
40 0 40 200 0 200 0 0 40 0 40 40 0 40 0 0 40 0 40 40 0 40 0 0 40 0 40 40 0
40 0 0 80 0 80 40 0 40 0 0 -120z m640 40 l0 -80 -200 0 -200 0 0 80 0 80 200
0 200 0 0 -80z m320 0 l0 -80 40 0 40 0 0 -40 0 -40 40 0 40 0 0 -40 0 -40 40
0 40 0 0 -40 0 -40 200 0 200 0 0 -40 0 -40 -200 0 -200 0 0 40 0 40 -80 0
-80 0 0 40 0 40 -40 0 -40 0 0 40 0 40 -40 0 -40 0 0 120 0 120 40 0 40 0 0
-80z m-320 -280 l0 -40 -200 0 -200 0 0 40 0 40 200 0 200 0 0 -40z m-880
-480 l0 -200 -40 0 -40 0 0 160 0 160 -120 0 -120 0 0 40 0 40 160 0 160 0 0
-200z m880 160 l0 -40 -200 0 -200 0 0 40 0 40 200 0 200 0 0 -40z m800 0 l0
-40 -120 0 -120 0 0 -160 0 -160 -40 0 -40 0 0 200 0 200 160 0 160 0 0 -40z
m-800 -240 l0 -40 80 0 80 0 0 -40 0 -40 40 0 40 0 0 -120 0 -120 160 0 160 0
0 -40 0 -40 -160 0 -160 0 0 -80 0 -80 -40 0 -40 0 0 -40 0 -40 -80 0 -80 0 0
-40 0 -40 -200 0 -200 0 0 40 0 40 -80 0 -80 0 0 40 0 40 -40 0 -40 0 0 80 0
80 -160 0 -160 0 0 40 0 40 160 0 160 0 0 120 0 120 40 0 40 0 0 40 0 40 80 0
80 0 0 40 0 40 200 0 200 0 0 -40z m-880 -240 l0 -40 -120 0 -120 0 0 -120 0
-120 -40 0 -40 0 0 160 0 160 160 0 160 0 0 -40z m1680 -120 l0 -160 -40 0
-40 0 0 120 0 120 -120 0 -120 0 0 40 0 40 160 0 160 0 0 -160z m-1520 -360
l0 -40 40 0 40 0 0 -40 0 -40 120 0 120 0 0 -40 0 -40 200 0 200 0 0 40 0 40
120 0 120 0 0 40 0 40 40 0 40 0 0 40 0 40 40 0 40 0 0 -80 0 -80 -40 0 -40 0
0 -40 0 -40 -160 0 -160 0 0 -240 0 -240 -40 0 -40 0 0 200 0 200 -120 0 -120
0 0 -200 0 -200 -40 0 -40 0 0 240 0 240 -160 0 -160 0 0 40 0 40 -40 0 -40 0
0 80 0 80 40 0 40 0 0 -40z"/>
<path d="M1530 1660 l0 -40 -80 0 -80 0 0 -40 0 -40 40 0 40 0 0 -40 0 -40
-40 0 -40 0 0 -160 0 -160 80 0 80 0 0 -40 0 -40 200 0 200 0 0 40 0 40 80 0
80 0 0 160 0 160 -40 0 -40 0 0 40 0 40 40 0 40 0 0 40 0 40 -80 0 -80 0 0 40
0 40 -200 0 -200 0 0 -40z m320 -120 l0 -80 40 0 40 0 0 -120 0 -120 -40 0
-40 0 0 -40 0 -40 -120 0 -120 0 0 40 0 40 -40 0 -40 0 0 120 0 120 40 0 40 0
0 80 0 80 120 0 120 0 0 -80z"/>
<path d="M1610 1380 l0 -80 40 0 40 0 0 -40 0 -40 40 0 40 0 0 40 0 40 40 0
40 0 0 80 0 80 -120 0 -120 0 0 -80z"/>
</g>
</svg>
