<?xml version="1.0" standalone="no"?>
<!DOCTYPE svg PUBLIC "-//W3C//DTD SVG 20010904//EN"
 "http://www.w3.org/TR/2001/REC-SVG-20010904/DTD/svg10.dtd">
<svg version="1.0" xmlns="http://www.w3.org/2000/svg"
 width="289.000000pt" height="310.000000pt" viewBox="0 0 289.000000 310.000000"
 preserveAspectRatio="xMidYMid meet">
<metadata>
Created by potrace 1.13, written by Peter Selinger 2001-2015
</metadata>
<g transform="translate(0.000000,310.000000) scale(0.100000,-0.100000)"
fill="#000000" stroke="none">
<path d="M1510 2910 l0 -70 -140 0 -140 0 0 -35 c0 -33 -2 -35 -35 -35 l-35 0
0 -70 0 -70 -70 0 -70 0 0 -105 0 -105 -35 0 -35 0 0 -350 0 -350 105 0 105 0
0 70 0 70 35 0 35 0 0 105 0 105 140 0 140 0 0 -105 0 -105 -70 0 -70 0 0
-105 0 -105 -70 0 -70 0 0 -70 0 -70 -35 0 -35 0 0 -70 0 -70 -70 0 -70 0 0
-35 c0 -33 -2 -35 -35 -35 l-35 0 0 -70 0 -70 -70 0 -70 0 0 -70 0 -70 -70 0
-70 0 0 -35 c0 -33 -2 -35 -35 -35 l-35 0 0 -70 0 -70 -70 0 -70 0 0 -35 c0
-33 -2 -35 -35 -35 l-35 0 0 -70 0 -70 -140 0 -140 0 0 -70 0 -70 -35 0 -35 0
0 -175 0 -175 175 0 175 0 0 70 0 70 35 0 35 0 0 105 0 105 70 0 70 0 0 70 0
70 35 0 35 0 0 70 0 70 70 0 70 0 0 35 0 35 70 0 70 0 0 70 0 70 35 0 c33 0
35 2 35 35 l0 35 70 0 70 0 0 70 0 70 35 0 35 0 0 70 0 70 70 0 70 0 0 35 0
35 70 0 70 0 0 70 0 70 105 0 105 0 0 70 0 70 105 0 105 0 0 -140 0 -140 -105
0 -105 0 0 -35 0 -35 -70 0 -70 0 0 -140 0 -140 350 0 350 0 0 70 0 70 105 0
105 0 0 70 0 70 70 0 70 0 0 35 c0 33 2 35 35 35 l35 0 0 140 0 140 70 0 70 0
0 315 0 315 -105 0 -105 0 0 -35 0 -35 -70 0 -70 0 0 -140 0 -140 -105 0 -105
0 0 70 0 70 -70 0 -70 0 0 70 0 70 70 0 70 0 0 105 0 105 -105 0 -105 0 0 -70
0 -70 -70 0 -70 0 0 70 0 70 -35 0 -35 0 0 105 0 105 105 0 105 0 0 70 0 70
35 0 35 0 0 105 0 105 -315 0 -315 0 0 -70z m210 -560 l0 -70 -70 0 -70 0 0
-35 c0 -33 -2 -35 -35 -35 -33 0 -35 2 -35 35 0 33 2 35 35 35 l35 0 0 70 0
70 70 0 70 0 0 -70z m210 -385 l0 -105 -35 0 c-33 0 -35 2 -35 35 l0 35 -70 0
-70 0 0 70 0 70 105 0 105 0 0 -105z m-210 -175 l0 -70 -70 0 -70 0 0 70 0 70
70 0 70 0 0 -70z m-210 -210 l0 -70 -70 0 -70 0 0 70 0 70 70 0 70 0 0 -70z
m1120 0 l0 -70 -105 0 -105 0 0 -70 0 -70 -70 0 -70 0 0 -35 0 -35 -70 0 -70
0 0 35 0 35 70 0 70 0 0 70 0 70 70 0 70 0 0 70 0 70 105 0 105 0 0 -70z
m-2380 -1260 l0 -70 -70 0 -70 0 0 70 0 70 70 0 70 0 0 -70z"/>
</g>
</svg>
