<?xml version="1.0" standalone="no"?>
<!DOCTYPE svg PUBLIC "-//W3C//DTD SVG 20010904//EN"
 "http://www.w3.org/TR/2001/REC-SVG-20010904/DTD/svg10.dtd">
<svg version="1.0" xmlns="http://www.w3.org/2000/svg"
 width="352.000000pt" height="197.000000pt" viewBox="0 0 352.000000 197.000000"
 preserveAspectRatio="xMidYMid meet">
<metadata>
Created by potrace 1.13, written by Peter Selinger 2001-2015
</metadata>
<g transform="translate(0.000000,197.000000) scale(0.100000,-0.100000)"
fill="#000000" stroke="none">
<path d="M730 1740 l0 -120 -40 0 -40 0 0 -40 0 -40 40 0 40 0 0 -160 0 -160
40 0 40 0 0 -40 0 -40 -40 0 -40 0 0 -120 0 -120 40 0 40 0 0 -120 0 -120 -40
0 -40 0 0 -80 0 -80 -80 0 -80 0 0 -40 0 -40 -40 0 -40 0 0 40 0 40 -40 0 -40
0 0 -40 0 -40 -40 0 -40 0 0 -40 0 -40 40 0 40 0 0 -40 0 -40 40 0 40 0 0 -40
0 -40 240 0 240 0 0 40 0 40 40 0 40 0 0 -40 0 -40 160 0 160 0 0 40 0 40 40
0 40 0 0 80 0 80 -40 0 -40 0 0 40 0 40 40 0 40 0 0 80 0 80 40 0 40 0 0 40 0
40 -80 0 -80 0 0 40 0 40 -40 0 -40 0 0 40 0 40 40 0 40 0 0 40 0 40 -40 0
-40 0 0 40 0 40 40 0 40 0 0 80 0 80 -80 0 -80 0 0 40 0 40 80 0 80 0 0 120 0
120 -40 0 -40 0 0 40 0 40 -160 0 -160 0 0 40 0 40 -40 0 -40 0 0 40 0 40 -40
0 -40 0 0 40 0 40 -40 0 -40 0 0 -120z m560 -240 l0 -40 -40 0 -40 0 0 -40 0
-40 -40 0 -40 0 0 80 0 80 80 0 80 0 0 -40z m-240 -160 l0 -40 40 0 40 0 0
-40 0 -40 40 0 40 0 0 -40 0 -40 -40 0 -40 0 0 40 0 40 -40 0 -40 0 0 40 0 40
-120 0 -120 0 0 40 0 40 120 0 120 0 0 -40z m0 -400 l0 -40 -40 0 -40 0 0 -80
0 -80 -40 0 -40 0 0 80 0 80 40 0 40 0 0 40 0 40 40 0 40 0 0 -40z m80 -400
l0 -40 -40 0 -40 0 0 -80 0 -80 -40 0 -40 0 0 40 0 40 -40 0 -40 0 0 -40 0
-40 -80 0 -80 0 0 40 0 40 80 0 80 0 0 40 0 40 80 0 80 0 0 40 0 40 40 0 40 0
0 -40z"/>
<path d="M2560 1820 l0 -40 -40 0 -40 0 0 -40 0 -40 -40 0 -40 0 0 -40 0 -40
-160 0 -160 0 0 -40 0 -40 -40 0 -40 0 0 -120 0 -120 80 0 80 0 0 -40 0 -40
-80 0 -80 0 0 -80 0 -80 40 0 40 0 0 -40 0 -40 -40 0 -40 0 0 -40 0 -40 40 0
40 0 0 -40 0 -40 -40 0 -40 0 0 -40 0 -40 -80 0 -80 0 0 -40 0 -40 40 0 40 0
0 -80 0 -80 40 0 40 0 0 -40 0 -40 -40 0 -40 0 0 -80 0 -80 40 0 40 0 0 -40 0
-40 160 0 160 0 0 40 0 40 40 0 40 0 0 -40 0 -40 240 0 240 0 0 40 0 40 40 0
40 0 0 40 0 40 40 0 40 0 0 40 0 40 -40 0 -40 0 0 40 0 40 -40 0 -40 0 0 -40
0 -40 -40 0 -40 0 0 40 0 40 -80 0 -80 0 0 80 0 80 -40 0 -40 0 0 120 0 120
40 0 40 0 0 120 0 120 -40 0 -40 0 0 40 0 40 40 0 40 0 0 160 0 160 40 0 40 0
0 40 0 40 -40 0 -40 0 0 120 0 120 -40 0 -40 0 0 -40z m-320 -360 l0 -80 -40
0 -40 0 0 40 0 40 -40 0 -40 0 0 40 0 40 80 0 80 0 0 -80z m320 -120 l0 -40
-120 0 -120 0 0 -40 0 -40 -40 0 -40 0 0 -40 0 -40 -40 0 -40 0 0 40 0 40 40
0 40 0 0 40 0 40 40 0 40 0 0 40 0 40 120 0 120 0 0 -40z m-160 -400 l0 -40
40 0 40 0 0 -80 0 -80 -40 0 -40 0 0 80 0 80 -40 0 -40 0 0 40 0 40 40 0 40 0
0 -40z m-80 -400 l0 -40 80 0 80 0 0 -40 0 -40 80 0 80 0 0 -40 0 -40 -80 0
-80 0 0 40 0 40 -40 0 -40 0 0 -40 0 -40 -40 0 -40 0 0 80 0 80 -40 0 -40 0 0
40 0 40 40 0 40 0 0 -40z"/>
</g>
</svg>
