<?xml version="1.0" standalone="no"?>
<!DOCTYPE svg PUBLIC "-//W3C//DTD SVG 20010904//EN"
 "http://www.w3.org/TR/2001/REC-SVG-20010904/DTD/svg10.dtd">
<svg version="1.0" xmlns="http://www.w3.org/2000/svg"
 width="352.000000pt" height="354.000000pt" viewBox="0 0 352.000000 354.000000"
 preserveAspectRatio="xMidYMid meet">
<metadata>
Created by potrace 1.13, written by Peter Selinger 2001-2015
</metadata>
<g transform="translate(0.000000,354.000000) scale(0.100000,-0.100000)"
fill="#000000" stroke="none">
<path d="M1330 3275 l0 -55 -55 0 -55 0 0 -115 0 -115 -55 0 -55 0 0 60 0 60
-115 0 -115 0 0 -60 0 -60 -55 0 -55 0 0 -170 0 -170 -60 0 -60 0 0 -110 0
-110 -55 0 -55 0 0 -285 0 -285 55 0 55 0 0 -55 0 -55 60 0 60 0 0 -230 0
-230 -60 0 -60 0 0 -115 0 -115 -55 0 -55 0 0 -110 0 -110 55 0 55 0 0 -60 0
-60 60 0 60 0 0 -55 0 -55 55 0 55 0 0 -55 0 -55 55 0 55 0 0 -60 0 -60 115 0
115 0 0 60 0 60 55 0 55 0 0 -60 0 -60 60 0 60 0 0 115 0 115 55 0 55 0 0 55
0 55 170 0 170 0 0 -55 0 -55 55 0 55 0 0 -115 0 -115 60 0 60 0 0 60 0 60 55
0 55 0 0 -60 0 -60 115 0 115 0 0 60 0 60 55 0 55 0 0 55 0 55 55 0 55 0 0 55
0 55 60 0 60 0 0 60 0 60 55 0 55 0 0 110 0 110 -55 0 -55 0 0 115 0 115 -60
0 -60 0 0 230 0 230 60 0 60 0 0 55 0 55 55 0 55 0 0 285 0 285 -55 0 -55 0 0
110 0 110 -60 0 -60 0 0 170 0 170 -55 0 -55 0 0 60 0 60 -115 0 -115 0 0 -60
0 -60 -55 0 -55 0 0 115 0 115 -55 0 -55 0 0 55 0 55 -60 0 -60 0 0 -55 0 -55
-55 0 -55 0 0 -115 0 -115 -55 0 -55 0 0 60 0 60 -60 0 -60 0 0 -60 0 -60 -55
0 -55 0 0 115 0 115 -55 0 -55 0 0 55 0 55 -60 0 -60 0 0 -55z m0 -395 l0
-110 60 0 60 0 0 110 0 110 55 0 55 0 0 -110 0 -110 -55 0 -55 0 0 -60 0 -60
-60 0 -60 0 0 60 0 60 -55 0 -55 0 0 110 0 110 55 0 55 0 0 -110z m680 0 l0
-110 60 0 60 0 0 110 0 110 55 0 55 0 0 -110 0 -110 -55 0 -55 0 0 -60 0 -60
-60 0 -60 0 0 60 0 60 -55 0 -55 0 0 110 0 110 55 0 55 0 0 -110z m-450 -850
l0 -60 55 0 55 0 0 -55 0 -55 60 0 60 0 0 55 0 55 55 0 55 0 0 60 0 60 170 0
170 0 0 -60 0 -60 55 0 55 0 0 -55 0 -55 60 0 60 0 0 -230 0 -230 -170 0 -170
0 0 -395 0 -395 -60 0 -60 0 0 455 0 455 170 0 170 0 0 170 0 170 -55 0 -55 0
0 55 0 55 -170 0 -170 0 0 -55 0 -55 -55 0 -55 0 0 -55 0 -55 -60 0 -60 0 0
55 0 55 -55 0 -55 0 0 55 0 55 -170 0 -170 0 0 -55 0 -55 -55 0 -55 0 0 -170
0 -170 170 0 170 0 0 -455 0 -455 -60 0 -60 0 0 395 0 395 -170 0 -170 0 0
230 0 230 60 0 60 0 0 55 0 55 55 0 55 0 0 60 0 60 170 0 170 0 0 -60z"/>
</g>
</svg>
