<?xml version="1.0" standalone="no"?>
<!DOCTYPE svg PUBLIC "-//W3C//DTD SVG 20010904//EN"
 "http://www.w3.org/TR/2001/REC-SVG-20010904/DTD/svg10.dtd">
<svg version="1.0" xmlns="http://www.w3.org/2000/svg"
 width="352.000000pt" height="362.000000pt" viewBox="0 0 352.000000 362.000000"
 preserveAspectRatio="xMidYMid meet">
<metadata>
Created by potrace 1.13, written by Peter Selinger 2001-2015
</metadata>
<g transform="translate(0.000000,362.000000) scale(0.100000,-0.100000)"
fill="#000000" stroke="none">
<path d="M1330 3575 c0 -13 -24 -15 -160 -15 l-160 0 0 -80 0 -80 -40 0 -40 0
0 80 0 80 -40 0 -40 0 0 -120 0 -120 -40 0 -40 0 0 80 0 80 -80 0 -80 0 0 -40
0 -40 -40 0 -40 0 0 -40 0 -40 -40 0 -40 0 0 -120 0 -120 40 0 40 0 0 -40 0
-40 160 0 160 0 0 -40 0 -40 80 0 80 0 0 80 0 80 40 0 40 0 0 -120 0 -120 -40
0 -40 0 0 -80 0 -80 40 0 40 0 0 -40 0 -40 -40 0 -40 0 0 -40 0 -40 -40 0 -40
0 0 160 0 160 -40 0 -40 0 0 -320 0 -320 -40 0 -40 0 0 360 0 360 -80 0 -80 0
0 -320 0 -320 -40 0 -40 0 0 -1075 0 -1075 40 0 40 0 0 -40 0 -40 200 0 200 0
0 80 0 80 40 0 40 0 0 240 0 240 40 0 40 0 0 -240 0 -240 40 0 40 0 0 -40 0
-40 80 0 80 0 0 -40 0 -40 350 0 350 0 0 40 0 40 80 0 80 0 0 40 0 40 40 0 40
0 0 240 0 240 40 0 40 0 0 -240 0 -240 40 0 40 0 0 -80 0 -80 200 0 200 0 0
40 0 40 40 0 40 0 0 1075 0 1075 -40 0 -40 0 0 320 0 320 -80 0 -80 0 0 -360
0 -360 -40 0 -40 0 0 320 0 320 -40 0 -40 0 0 -160 0 -160 -40 0 -40 0 0 40 0
40 -40 0 -40 0 0 40 0 40 40 0 40 0 0 80 0 80 -40 0 -40 0 0 120 0 120 40 0
40 0 0 -80 0 -80 80 0 80 0 0 40 0 40 160 0 160 0 0 40 0 40 40 0 40 0 0 120
0 120 -40 0 -40 0 0 40 0 40 -40 0 -40 0 0 40 0 40 -80 0 -80 0 0 -80 0 -80
-40 0 -40 0 0 120 0 120 -40 0 -40 0 0 -80 0 -80 -40 0 -40 0 0 80 0 80 -160
0 c-136 0 -160 2 -160 15 0 13 -54 15 -430 15 -376 0 -430 -2 -430 -15z m780
-135 l0 -40 40 0 40 0 0 -80 0 -80 -40 0 -40 0 0 -40 0 -40 -40 0 -40 0 0 -40
0 -40 -270 0 -270 0 0 40 0 40 -40 0 -40 0 0 40 0 40 -40 0 -40 0 0 80 0 80
40 0 40 0 0 40 0 40 350 0 350 0 0 -40z m-1020 -80 l0 -40 40 0 40 0 0 -80 0
-80 40 0 40 0 0 -240 0 -240 40 0 40 0 0 -40 0 -40 40 0 40 0 0 -40 0 -40 80
0 80 0 0 -40 0 -40 190 0 190 0 0 40 0 40 80 0 80 0 0 40 0 40 40 0 40 0 0 40
0 40 40 0 40 0 0 240 0 240 40 0 40 0 0 80 0 80 40 0 40 0 0 40 0 40 40 0 40
0 0 -40 0 -40 -40 0 -40 0 0 -80 0 -80 -40 0 -40 0 0 -200 0 -200 40 0 40 0 0
-40 0 -40 -80 0 -80 0 0 -40 0 -40 -40 0 -40 0 0 -40 0 -40 -40 0 -40 0 0 -40
0 -40 -80 0 -80 0 0 -40 0 -40 -190 0 -190 0 0 40 0 40 -80 0 -80 0 0 40 0 40
-40 0 -40 0 0 40 0 40 -40 0 -40 0 0 40 0 40 -80 0 -80 0 0 40 0 40 40 0 40 0
0 200 0 200 -40 0 -40 0 0 80 0 80 -40 0 -40 0 0 40 0 40 40 0 40 0 0 -40z
m-160 -120 l0 -80 40 0 40 0 0 -40 0 -40 -40 0 -40 0 0 40 0 40 -40 0 -40 0 0
80 0 80 40 0 40 0 0 -80z m1740 0 l0 -80 -40 0 -40 0 0 -40 0 -40 -40 0 -40 0
0 40 0 40 40 0 40 0 0 80 0 80 40 0 40 0 0 -80z m-1260 -360 l0 -120 40 0 40
0 0 80 0 80 40 0 40 0 0 -80 0 -80 190 0 190 0 0 80 0 80 40 0 40 0 0 -80 0
-80 40 0 40 0 0 120 0 120 40 0 40 0 0 -120 0 -120 -40 0 -40 0 0 -40 0 -40
-40 0 -40 0 0 -40 0 -40 -270 0 -270 0 0 40 0 40 -40 0 -40 0 0 40 0 40 -40 0
-40 0 0 120 0 120 40 0 40 0 0 -120z m-240 -320 l0 -40 40 0 40 0 0 -40 0 -40
40 0 40 0 0 -40 0 -40 40 0 40 0 0 -40 0 -40 40 0 40 0 0 -80 0 -80 40 0 40 0
0 -240 0 -240 -40 0 -40 0 0 -40 0 -40 40 0 40 0 0 -40 0 -40 190 0 190 0 0
40 0 40 40 0 40 0 0 40 0 40 -40 0 -40 0 0 240 0 240 40 0 40 0 0 80 0 80 40
0 40 0 0 40 0 40 40 0 40 0 0 40 0 40 40 0 40 0 0 40 0 40 40 0 40 0 0 40 0
40 40 0 40 0 0 -40 0 -40 40 0 40 0 0 -40 0 -40 -40 0 -40 0 0 -40 0 -40 -40
0 -40 0 0 -40 0 -40 -40 0 -40 0 0 -40 0 -40 -40 0 -40 0 0 -120 0 -120 -40 0
-40 0 0 -40 0 -40 -40 0 -40 0 0 -80 0 -80 40 0 40 0 0 -80 0 -80 -40 0 -40 0
0 -80 0 -80 -270 0 -270 0 0 80 0 80 -40 0 -40 0 0 80 0 80 40 0 40 0 0 80 0
80 -40 0 -40 0 0 40 0 40 -40 0 -40 0 0 120 0 120 -40 0 -40 0 0 40 0 40 -40
0 -40 0 0 40 0 40 -40 0 -40 0 0 40 0 40 -40 0 -40 0 0 40 0 40 40 0 40 0 0
40 0 40 40 0 40 0 0 -40z m-240 -480 l0 -120 40 0 40 0 0 -400 0 -400 40 0 40
0 0 -235 0 -235 -40 0 -40 0 0 235 0 235 -40 0 -40 0 0 400 0 400 -40 0 -40 0
0 120 0 120 40 0 40 0 0 -120z m1740 0 l0 -120 -40 0 -40 0 0 -400 0 -400 -40
0 -40 0 0 -235 0 -235 -40 0 -40 0 0 235 0 235 40 0 40 0 0 400 0 400 40 0 40
0 0 120 0 120 40 0 40 0 0 -120z"/>
<path d="M1410 3360 l0 -40 40 0 40 0 0 -80 0 -80 270 0 270 0 0 80 0 80 40 0
40 0 0 40 0 40 -350 0 -350 0 0 -40z"/>
<path d="M1090 2480 l0 -40 40 0 40 0 0 -40 0 -40 40 0 40 0 0 -40 0 -40 40 0
40 0 0 -40 0 -40 40 0 40 0 0 40 0 40 -40 0 -40 0 0 40 0 40 -40 0 -40 0 0 40
0 40 -40 0 -40 0 0 40 0 40 -40 0 -40 0 0 -40z"/>
<path d="M2350 2480 l0 -40 -40 0 -40 0 0 -40 0 -40 -40 0 -40 0 0 -40 0 -40
-40 0 -40 0 0 -40 0 -40 40 0 40 0 0 40 0 40 40 0 40 0 0 40 0 40 40 0 40 0 0
40 0 40 40 0 40 0 0 40 0 40 -40 0 -40 0 0 -40z"/>
</g>
</svg>
