<?xml version="1.0" standalone="no"?>
<!DOCTYPE svg PUBLIC "-//W3C//DTD SVG 20010904//EN"
 "http://www.w3.org/TR/2001/REC-SVG-20010904/DTD/svg10.dtd">
<svg version="1.0" xmlns="http://www.w3.org/2000/svg"
 width="352.000000pt" height="354.000000pt" viewBox="0 0 352.000000 354.000000"
 preserveAspectRatio="xMidYMid meet">
<metadata>
Created by potrace 1.13, written by Peter Selinger 2001-2015
</metadata>
<g transform="translate(0.000000,354.000000) scale(0.100000,-0.100000)"
fill="#000000" stroke="none">
<path d="M880 3430 l0 -90 40 0 40 0 0 -40 0 -40 -40 0 -40 0 0 -45 0 -45 40
0 40 0 0 -90 0 -90 -40 0 -40 0 0 -225 0 -225 -45 0 -45 0 0 -45 0 -45 -45 0
-45 0 0 -45 0 -45 45 0 45 0 0 -45 0 -45 -45 0 -45 0 0 -40 0 -40 45 0 45 0 0
-45 0 -45 45 0 45 0 0 -180 0 -180 -45 0 -45 0 0 45 0 45 -90 0 -90 0 0 -45 0
-45 45 0 45 0 0 -90 0 -90 45 0 45 0 0 -90 0 -90 45 0 45 0 0 -310 0 -310 -45
0 -45 0 0 -90 0 -90 -45 0 -45 0 0 -90 0 -90 -45 0 -45 0 0 -45 0 -45 -45 0
-45 0 0 -90 0 -90 90 0 90 0 0 -40 0 -40 175 0 175 0 0 40 0 40 90 0 90 0 0
90 0 90 90 0 90 0 0 45 0 45 45 0 45 0 0 -45 0 -45 45 0 45 0 0 315 0 315 -45
0 -45 0 0 265 0 265 45 0 45 0 0 180 0 180 45 0 45 0 0 90 0 90 45 0 45 0 0
-90 0 -90 45 0 45 0 0 -180 0 -180 45 0 45 0 0 -265 0 -265 -45 0 -45 0 0
-315 0 -315 45 0 45 0 0 45 0 45 45 0 45 0 0 -45 0 -45 90 0 90 0 0 -90 0 -90
90 0 90 0 0 -40 0 -40 175 0 175 0 0 40 0 40 90 0 90 0 0 90 0 90 -45 0 -45 0
0 45 0 45 -45 0 -45 0 0 90 0 90 -45 0 -45 0 0 90 0 90 -45 0 -45 0 0 310 0
310 45 0 45 0 0 90 0 90 45 0 45 0 0 90 0 90 45 0 45 0 0 45 0 45 -90 0 -90 0
0 -45 0 -45 -45 0 -45 0 0 180 0 180 45 0 45 0 0 45 0 45 45 0 45 0 0 40 0 40
-45 0 -45 0 0 45 0 45 45 0 45 0 0 45 0 45 -45 0 -45 0 0 45 0 45 -45 0 -45 0
0 225 0 225 -40 0 -40 0 0 90 0 90 40 0 40 0 0 45 0 45 -40 0 -40 0 0 40 0 40
40 0 40 0 0 90 0 90 -85 0 -85 0 0 -45 0 -45 -90 0 -90 0 0 45 0 45 -495 0
-495 0 0 -45 0 -45 -90 0 -90 0 0 45 0 45 -85 0 -85 0 0 -90z m1160 -45 l0
-45 -315 0 -315 0 0 45 0 45 315 0 315 0 0 -45z m-90 -260 l0 -45 90 0 90 0 0
-45 0 -45 -90 0 -90 0 0 45 0 45 -225 0 -225 0 0 -45 0 -45 -90 0 -90 0 0 45
0 45 90 0 90 0 0 45 0 45 225 0 225 0 0 -45z m-450 -270 l0 -45 45 0 45 0 0
-90 0 -90 135 0 135 0 0 90 0 90 45 0 45 0 0 45 0 45 45 0 45 0 0 -45 0 -45
-45 0 -45 0 0 -90 0 -90 -45 0 -45 0 0 -45 0 -45 -135 0 -135 0 0 45 0 45 -45
0 -45 0 0 90 0 90 -45 0 -45 0 0 45 0 45 45 0 45 0 0 -45z m-180 -270 l0 -45
-90 0 -90 0 0 -45 0 -45 -90 0 -90 0 0 45 0 45 90 0 90 0 0 45 0 45 90 0 90 0
0 -45z m990 0 l0 -45 90 0 90 0 0 -45 0 -45 -90 0 -90 0 0 45 0 45 -90 0 -90
0 0 45 0 45 90 0 90 0 0 -45z m-810 -180 l0 -45 45 0 45 0 0 -85 0 -85 -45 0
-45 0 0 -90 0 -90 45 0 45 0 0 -45 0 -45 -45 0 -45 0 0 45 0 45 -45 0 -45 0 0
90 0 90 45 0 45 0 0 85 0 85 -45 0 -45 0 0 45 0 45 45 0 45 0 0 -45z m540 0
l0 -45 -45 0 -45 0 0 -85 0 -85 45 0 45 0 0 -90 0 -90 -45 0 -45 0 0 -45 0
-45 -45 0 -45 0 0 45 0 45 45 0 45 0 0 90 0 90 -45 0 -45 0 0 85 0 85 45 0 45
0 0 45 0 45 45 0 45 0 0 -45z m-720 -175 l0 -40 -45 0 -45 0 0 -45 0 -45 -45
0 -45 0 0 -45 0 -45 45 0 45 0 0 -45 0 -45 -45 0 -45 0 0 -45 0 -45 -90 0 -90
0 0 45 0 45 90 0 90 0 0 45 0 45 -90 0 -90 0 0 45 0 45 90 0 90 0 0 45 0 45
45 0 45 0 0 40 0 40 45 0 45 0 0 -40z m900 0 l0 -40 45 0 45 0 0 -45 0 -45 90
0 90 0 0 -45 0 -45 -90 0 -90 0 0 -45 0 -45 90 0 90 0 0 -45 0 -45 -90 0 -90
0 0 45 0 45 -45 0 -45 0 0 45 0 45 45 0 45 0 0 45 0 45 -45 0 -45 0 0 45 0 45
-45 0 -45 0 0 40 0 40 45 0 45 0 0 -40z m-720 -625 l0 -45 -90 0 -90 0 0 -220
0 -220 -45 0 -45 0 0 -135 0 -135 45 0 45 0 0 -45 0 -45 45 0 45 0 0 -45 0
-45 45 0 45 0 0 -45 0 -45 -45 0 -45 0 0 45 0 45 -45 0 -45 0 0 45 0 45 -45 0
-45 0 0 45 0 45 -45 0 -45 0 0 175 0 175 45 0 45 0 0 180 0 180 45 0 45 0 0
45 0 45 90 0 90 0 0 -45z m630 0 l0 -45 45 0 45 0 0 -180 0 -180 45 0 45 0 0
-175 0 -175 -45 0 -45 0 0 -45 0 -45 -45 0 -45 0 0 -45 0 -45 -45 0 -45 0 0
-45 0 -45 -45 0 -45 0 0 45 0 45 45 0 45 0 0 45 0 45 45 0 45 0 0 45 0 45 45
0 45 0 0 135 0 135 -45 0 -45 0 0 220 0 220 -90 0 -90 0 0 45 0 45 90 0 90 0
0 -45z m-900 -1070 l0 -45 -90 0 -90 0 0 -45 0 -45 -85 0 -85 0 0 45 0 45 85
0 85 0 0 45 0 45 90 0 90 0 0 -45z m1170 0 l0 -45 85 0 85 0 0 -45 0 -45 -85
0 -85 0 0 45 0 45 -90 0 -90 0 0 45 0 45 90 0 90 0 0 -45z"/>
</g>
</svg>
