<?xml version="1.0" standalone="no"?>
<!DOCTYPE svg PUBLIC "-//W3C//DTD SVG 20010904//EN"
 "http://www.w3.org/TR/2001/REC-SVG-20010904/DTD/svg10.dtd">
<svg version="1.0" xmlns="http://www.w3.org/2000/svg"
 width="392.000000pt" height="388.000000pt" viewBox="0 0 392.000000 388.000000"
 preserveAspectRatio="xMidYMid meet">
<metadata>
Created by potrace 1.13, written by Peter Selinger 2001-2015
</metadata>
<g transform="translate(0.000000,388.000000) scale(0.100000,-0.100000)"
fill="#000000" stroke="none">
<path d="M3610 3780 l0 -60 -340 0 -340 0 0 -55 0 -55 -60 0 -60 0 0 -55 0
-55 -55 0 -55 0 0 -60 0 -60 -55 0 -55 0 0 -115 0 -115 -60 0 -60 0 0 -110 0
-110 -55 0 -55 0 0 -115 0 -115 -55 0 -55 0 0 -55 0 -55 -60 0 -60 0 0 -60 0
-60 -55 0 -55 0 0 -55 0 -55 -115 0 -115 0 0 -55 0 -55 -55 0 -55 0 0 -60 0
-60 -55 0 -55 0 0 -110 0 -110 -115 0 -115 0 0 110 0 110 55 0 55 0 0 60 0 60
-170 0 -170 0 0 -115 0 -115 60 0 60 0 0 -170 0 -170 -115 0 -115 0 0 -55 0
-55 -115 0 -115 0 0 170 0 170 60 0 60 0 0 110 0 110 -115 0 -115 0 0 -55 0
-55 -55 0 -55 0 0 -55 0 -55 -60 0 -60 0 0 -170 0 -170 -55 0 -55 0 0 -60 0
-60 -115 0 -115 0 0 -110 0 -110 115 0 115 0 0 55 0 55 115 0 115 0 0 -115 0
-115 280 0 280 0 0 -55 0 -55 -110 0 -110 0 0 -55 0 -55 -60 0 -60 0 0 -60 0
-60 -55 0 -55 0 0 -55 0 -55 -55 0 -55 0 0 -55 0 -55 -115 0 -115 0 0 -60 0
-60 -60 0 -60 0 0 -55 0 -55 -55 0 -55 0 0 -115 0 -115 230 0 230 0 0 115 0
115 55 0 55 0 0 115 0 115 55 0 55 0 0 55 0 55 115 0 115 0 0 55 0 55 55 0 55
0 0 60 0 60 60 0 60 0 0 -115 0 -115 -60 0 -60 0 0 -55 0 -55 -55 0 -55 0 0
-60 0 -60 55 0 55 0 0 -55 0 -55 115 0 115 0 0 -115 0 -115 170 0 170 0 0 170
0 170 170 0 170 0 0 60 0 60 55 0 55 0 0 110 0 110 -110 0 -110 0 0 -55 0 -55
-60 0 -60 0 0 55 0 55 -55 0 -55 0 0 115 0 115 115 0 115 0 0 -55 0 -55 110 0
110 0 0 55 0 55 115 0 115 0 0 170 0 170 -55 0 -55 0 0 -55 0 -55 -170 0 -170
0 0 55 0 55 110 0 110 0 0 55 0 55 60 0 60 0 0 60 0 60 55 0 55 0 0 110 0 110
55 0 55 0 0 60 0 60 60 0 60 0 0 55 0 55 55 0 55 0 0 55 0 55 55 0 55 0 0 60
0 60 60 0 60 0 0 55 0 55 170 0 170 0 0 55 0 55 55 0 55 0 0 60 0 60 115 0
115 0 0 110 0 110 55 0 55 0 0 60 0 60 60 0 60 0 0 170 0 170 -60 0 -60 0 0
170 0 170 60 0 60 0 0 115 0 115 -115 0 -115 0 0 -60z m-120 -225 l0 -55 60 0
60 0 0 -60 0 -60 -60 0 -60 0 0 -55 0 -55 -55 0 -55 0 0 -60 0 -60 -55 0 -55
0 0 -55 0 -55 -60 0 -60 0 0 -55 0 -55 -55 0 -55 0 0 -60 0 -60 55 0 55 0 0
-170 0 -170 -55 0 -55 0 0 60 0 60 -55 0 -55 0 0 55 0 55 -60 0 -60 0 0 -55 0
-55 -55 0 -55 0 0 -60 0 -60 -55 0 -55 0 0 60 0 60 55 0 55 0 0 55 0 55 55 0
55 0 0 55 0 55 -55 0 -55 0 0 60 0 60 -55 0 -55 0 0 55 0 55 170 0 170 0 0
-55 0 -55 55 0 55 0 0 55 0 55 55 0 55 0 0 55 0 55 60 0 60 0 0 60 0 60 55 0
55 0 0 55 0 55 55 0 55 0 0 60 0 60 -55 0 -55 0 0 55 0 55 55 0 55 0 0 -55z
m-900 -1310 l0 -115 -60 0 -60 0 0 -55 0 -55 -55 0 -55 0 0 55 0 55 55 0 55 0
0 115 0 115 60 0 60 0 0 -115z m-570 -395 l0 -60 -55 0 -55 0 0 -170 0 -170
-60 0 -60 0 0 -55 0 -55 -55 0 -55 0 0 -55 0 -55 -55 0 -55 0 0 -60 0 -60 -60
0 -60 0 0 115 0 115 -110 0 -110 0 0 55 0 55 55 0 55 0 0 60 0 60 55 0 55 0 0
55 0 55 60 0 60 0 0 55 0 55 170 0 170 0 0 60 0 60 55 0 55 0 0 -60z m-900
-460 l0 -60 -55 0 -55 0 0 -55 0 -55 -55 0 -55 0 0 55 0 55 -115 0 -115 0 0
60 0 60 225 0 225 0 0 -60z m450 -675 l0 -55 55 0 55 0 0 -55 0 -55 -55 0 -55
0 0 -115 0 -115 -60 0 -60 0 0 225 0 225 60 0 60 0 0 -55z m-1020 -340 l0 -55
-60 0 -60 0 0 -55 0 -55 -115 0 -115 0 0 55 0 55 115 0 115 0 0 55 0 55 60 0
60 0 0 -55z"/>
<path d="M2810 2870 l0 -60 60 0 60 0 0 -55 0 -55 55 0 55 0 0 55 0 55 -55 0
-55 0 0 60 0 60 -60 0 -60 0 0 -60z"/>
<path d="M1570 1625 l0 -55 -60 0 -60 0 0 -115 0 -115 115 0 115 0 0 55 0 55
55 0 55 0 0 115 0 115 -110 0 -110 0 0 -55z"/>
</g>
</svg>
